<?xml version="1.0" encoding="utf-8"?>
<!-- Generator: Adobe Illustrator 20.1.0, SVG Export Plug-In . SVG Version: 6.00 Build 0)  -->
<svg version="1.1" id="Layer_1" xmlns="http://www.w3.org/2000/svg" xmlns:xlink="http://www.w3.org/1999/xlink" x="0px" y="0px"
	 viewBox="0 0 512 512" style="enable-background:new 0 0 512 512;" xml:space="preserve">
<style type="text/css">
	.st0{fill:#FFFFFF;}
</style>
<g>
	<g>
		<g>
			<path class="st0" d="M313.9,68.8c1.4,1,3.1,1.5,4.7,1.5c2.5,0,5-1.2,6.6-3.4c2.6-3.6,1.7-8.7-1.9-11.3l-0.9-0.6
				c-3.6-2.6-8.7-1.7-11.3,1.9c-2.6,3.6-1.7,8.7,1.9,11.3L313.9,68.8z"/>
			<path class="st0" d="M257.5,102.2c-6.1,4.4-9.6,11.2-9.6,18.7v73c0,9.9,6.3,18.7,15.7,21.8l79.3,26.4c0,0,0,0,0,0
				c0.3,0.1,0.6,0.1,0.9,0.2c0.1,0,0.3,0.1,0.4,0.1c0.1,0,0.3,0,0.5,0c0.3,0,0.5,0.1,0.8,0.1c0.4,0,0.9,0,1.3-0.1c0,0,0.1,0,0.1,0
				c0.4-0.1,0.7-0.2,1.1-0.3c0,0,0,0,0,0l79.3-26.4c9.4-3.1,15.7-11.9,15.7-21.8v-73c0-7.5-3.5-14.3-9.6-18.7
				c-6.1-4.4-13.6-5.5-20.7-3.2l-67.3,22.4l-67.3-22.4C271.1,96.7,263.5,97.8,257.5,102.2z M353.6,135.8l64.3-21.4
				c2.1-0.7,4.4-0.4,6.2,0.9c1.8,1.3,2.8,3.3,2.8,5.5v73c0,2.9-1.9,5.6-4.7,6.5l-68.7,22.9V135.8z M337.4,223.2l-68.7-22.9
				c-2.8-0.9-4.7-3.5-4.7-6.5v-73c0-2.2,1-4.2,2.8-5.5c1.8-1.3,4-1.6,6.2-0.9l64.3,21.4V223.2z"/>
			<path class="st0" d="M355.1,58.4c1.4,1,3.1,1.5,4.7,1.5c2.5,0,5-1.2,6.6-3.4c2.6-3.6,1.7-8.7-1.9-11.3l-0.9-0.6
				c-3.6-2.6-8.7-1.7-11.3,1.9c-2.6,3.6-1.7,8.7,1.9,11.3L355.1,58.4z"/>
			<path class="st0" d="M336.3,84.7c1.4,1,3.1,1.5,4.7,1.5c2.5,0,5-1.2,6.6-3.4c2.6-3.6,1.7-8.7-1.9-11.3l-0.9-0.6
				c-3.6-2.6-8.7-1.7-11.3,1.9c-2.6,3.6-1.7,8.7,1.9,11.3L336.3,84.7z"/>
			<path class="st0" d="M246.3,280.3h-1.1c-4.5,0-8.1,3.6-8.1,8.1c0,4.5,3.6,8.1,8.1,8.1h1.1c4.5,0,8.1-3.6,8.1-8.1
				C254.4,283.9,250.8,280.3,246.3,280.3z"/>
			<path class="st0" d="M63.8,249.8c-30.3-25.2-47.7-62.2-47.7-101.6c0-72.8,59.2-132,132-132c49.4,0,94.3,27.2,117.2,71.1
				c2.1,4,6.9,5.5,10.9,3.4c4-2.1,5.5-6.9,3.4-10.9C254.1,30.6,203.7,0,148.2,0C66.5,0,0,66.5,0,148.2c0,44.2,19.5,85.7,53.5,114
				c1.5,1.3,3.3,1.9,5.2,1.9c2.3,0,4.6-1,6.2-2.9C67.7,257.7,67.3,252.6,63.8,249.8z"/>
			<path class="st0" d="M137.4,145.5h1.1c4.5,0,8.1-3.6,8.1-8.1s-3.6-8.1-8.1-8.1h-1.1c-4.5,0-8.1,3.6-8.1,8.1
				C129.3,141.9,133,145.5,137.4,145.5z"/>
			<path class="st0" d="M313.7,329.2c-4.1-1.8-8.9,0-10.7,4.1c-17.8,39.8-57.4,65.5-101,65.5c-60.9,0-110.5-49.6-110.5-110.5
				c0-21.5,6.2-42.3,17.9-60.3c2.4-3.7,1.4-8.7-2.4-11.2c-3.7-2.4-8.7-1.4-11.2,2.4c-13.4,20.6-20.5,44.4-20.5,69.1
				c0,69.8,56.8,126.7,126.7,126.7c50,0,95.4-29.5,115.7-75.1C319.7,335.8,317.8,331,313.7,329.2z"/>
			<path class="st0" d="M115.9,431.2c-22.3,0-40.4,18.1-40.4,40.4S93.6,512,115.9,512s40.4-18.1,40.4-40.4
				C156.3,449.3,138.2,431.2,115.9,431.2z M115.9,495.8c-13.4,0-24.3-10.9-24.3-24.3s10.9-24.3,24.3-24.3
				c13.4,0,24.3,10.9,24.3,24.3S129.2,495.8,115.9,495.8z"/>
			<path class="st0" d="M353,0c-28.6,0-56.7,7.7-81.2,22.3c-3.8,2.3-5.1,7.2-2.8,11.1c2.3,3.8,7.2,5.1,11.1,2.8
				c22-13.1,47.2-20,72.9-20c78.8,0,142.8,64.1,142.8,142.8S431.8,301.8,353,301.8c-25.1,0-49.8-6.6-71.4-19.1
				c-3.9-2.2-8.8-0.9-11,2.9c-2.2,3.9-0.9,8.8,3,11c24.1,13.9,51.6,21.3,79.5,21.3c87.7,0,159-71.3,159-159S440.7,0,353,0z"/>
			<path class="st0" d="M246.3,312.6h-1.1c-4.5,0-8.1,3.6-8.1,8.1c0,4.5,3.6,8.1,8.1,8.1h1.1c4.5,0,8.1-3.6,8.1-8.1
				C254.4,316.2,250.8,312.6,246.3,312.6z"/>
			<path class="st0" d="M84.7,190.7c7.4,7.4,17.1,11.1,26.8,11.1c9.5,0,19.1-3.6,26.4-10.7c7.3,7.1,16.9,10.7,26.4,10.7
				c9.7,0,19.4-3.7,26.8-11.1c14.7-14.7,14.8-38.4,0.4-53.2c14.4-14.8,14.2-38.6-0.4-53.2c-14.7-14.7-38.4-14.8-53.2-0.4
				c-14.8-14.4-38.6-14.2-53.2,0.4c-14.7,14.7-14.8,38.4-0.4,53.2C70,152.3,70.1,176,84.7,190.7z M96.2,179.2
				c-8.3-8.3-8.5-21.8-0.4-30.3l30.8,30.8C118,187.7,104.5,187.6,96.2,179.2z M179.8,179.2c-8.3,8.3-21.8,8.5-30.3,0.4l30.8-30.8
				C188.2,157.4,188.1,170.9,179.8,179.2z M179.8,95.6c8.3,8.3,8.5,21.8,0.4,30.3l-30.8-30.8C157.9,87.2,171.4,87.3,179.8,95.6z
				 M168.8,137.4L138,168.2l-30.8-30.8l30.8-30.8L168.8,137.4z M96.2,95.6c4.2-4.2,9.8-6.4,15.4-6.4c5.4,0,10.8,2,14.9,6L95.8,126
				C87.7,117.5,87.8,104,96.2,95.6z"/>
			<path class="st0" d="M264.1,245.2c0-4.5-3.6-8.1-8.1-8.1h-31.4c-10.5,0-19.8,6.7-23.1,16.6l-24.9,74.8c-1.1,3.3-4.2,5.6-7.8,5.6
				c-3.1,0-5.8-1.7-7.2-4.4l-27.8-53c-2.1-4-7-5.5-10.9-3.4s-5.5,7-3.4,10.9l27.8,53c4.2,8,12.5,13,21.6,13
				c10.5,0,19.8-6.7,23.1-16.6l24.9-74.8c1.1-3.3,4.2-5.6,7.8-5.6H256C260.5,253.3,264.1,249.7,264.1,245.2z"/>
			<path class="st0" d="M63.1,204.8H62c-4.5,0-8.1,3.6-8.1,8.1s3.6,8.1,8.1,8.1h1.1c4.5,0,8.1-3.6,8.1-8.1S67.5,204.8,63.1,204.8z"
				/>
			<path class="st0" d="M160.1,264.1c4.5,0,8.1-3.6,8.1-8.1c0-4.5-3.6-8.1-8.1-8.1H159c-4.5,0-8.1,3.6-8.1,8.1
				c0,4.5,3.6,8.1,8.1,8.1L160.1,264.1L160.1,264.1z"/>
		</g>
	</g>
</g>
</svg>
