<?xml version="1.0" encoding="utf-8"?>
<!-- Generator: Adobe Illustrator 20.1.0, SVG Export Plug-In . SVG Version: 6.00 Build 0)  -->
<svg version="1.1" id="Layer_1" xmlns="http://www.w3.org/2000/svg" xmlns:xlink="http://www.w3.org/1999/xlink" x="0px" y="0px"
	 viewBox="0 0 137.3 96.4" style="enable-background:new 0 0 137.3 96.4;" xml:space="preserve">
<style type="text/css">
	.st0{fill:#FFCE00;}
	.st1{fill:#333333;}
</style>
<title>logo</title>
<path class="st0" d="M9.3,49.8C-2.3,54.5-3.2,63.9,7.5,70.6l35,22.1c11,6.6,25.2,4.1,33.2-6l57.6-75.3c7.6-10,4.4-14.2-7.3-9.5
	L9.3,49.8z"/>
<path class="st1" d="M25.1,71.3h-7.8V50.1h7.8L25.1,71.3z"/>
<path class="st1" d="M44.2,50.1v6.4H39v14.8h-7.8V56.4h-5.2v-6.4H44.2z"/>
<path class="st1" d="M60.1,55.7h-7.5v2.2h6.5V63h-6.5v2.6h9.8v5.6H45.2V50.1h15L60.1,55.7z"/>
<path class="st1" d="M67.4,49.1l8.8,9.6L76,50.1h7.3v21.2l-5.3,0.9l-8.7-9.4l0.1,8.4h-7.3V50.1L67.4,49.1z"/>
</svg>
