<?xml version="1.0" encoding="iso-8859-1"?>
<!-- Generator: Adobe Illustrator 19.0.0, SVG Export Plug-In . SVG Version: 6.00 Build 0)  -->
<svg version="1.1" id="Layer_1" xmlns="http://www.w3.org/2000/svg" xmlns:xlink="http://www.w3.org/1999/xlink" x="0px" y="0px"
	 viewBox="0 0 512 512" style="enable-background:new 0 0 512 512;" xml:space="preserve">
<path style="fill:#FFC61B;" d="M440.545,491.891h-64.064c-12.727,0-23.082-10.355-23.082-23.082V171.601h-25.267
	c-8.841,0-16.767-4.922-20.689-12.846c-3.92-7.923-3.023-17.211,2.34-24.24l80.382-105.327c4.402-5.769,11.089-9.079,18.347-9.079
	c7.259,0,13.947,3.31,18.35,9.081l80.38,105.325c5.362,7.025,6.262,16.313,2.342,24.238c-3.921,7.925-11.847,12.848-20.689,12.848
	h-39.96c-8.113,0-14.692-6.577-14.692-14.692s6.579-14.692,14.692-14.692h27.222L408.513,53.58l-67.644,88.638h27.222
	c8.113,0,14.692,6.577,14.692,14.692v305.599h51.461v-238.61c0-8.114,6.579-14.692,14.692-14.692s14.692,6.577,14.692,14.692
	v244.912C463.627,481.537,453.272,491.891,440.545,491.891z"/>
<path style="fill:#FEE187;" d="M190.417,216.553v252.257c0,4.634,3.757,8.39,8.39,8.39h64.064c4.634,0,8.39-3.757,8.39-8.39V216.553
	c0-4.634-3.757-8.39-8.39-8.39h-64.064C194.174,208.162,190.417,211.919,190.417,216.553z"/>
<g>
	<path style="fill:#FFC61B;" d="M262.871,491.891h-64.065c-12.726,0-23.08-10.355-23.08-23.082V216.553
		c0-12.727,10.355-23.082,23.08-23.082h64.064c12.727,0,23.082,10.355,23.082,23.082v252.257
		C285.953,481.537,275.599,491.891,262.871,491.891z M205.109,462.508h51.46V222.854h-51.46V462.508z"/>
	<path style="fill:#FFC61B;" d="M87.144,491.891H23.082C10.355,491.891,0,481.537,0,468.809V323.898
		c0-12.727,10.355-23.082,23.082-23.082h64.062c8.113,0,14.692,6.577,14.692,14.692c0,8.114-6.579,14.692-14.692,14.692H29.383
		v132.309h51.46v-76.267c0-8.114,6.579-14.692,14.692-14.692s14.692,6.577,14.692,14.692v82.569
		C110.226,481.537,99.872,491.891,87.144,491.891z"/>
</g>
<g>
</g>
<g>
</g>
<g>
</g>
<g>
</g>
<g>
</g>
<g>
</g>
<g>
</g>
<g>
</g>
<g>
</g>
<g>
</g>
<g>
</g>
<g>
</g>
<g>
</g>
<g>
</g>
<g>
</g>
</svg>
