<svg id="Layer_1" data-name="Layer 1" xmlns="http://www.w3.org/2000/svg" viewBox="0 0 333.16 199.38"><defs><style>.cls-1,.cls-2,.cls-3,.cls-5,.cls-6{fill:none;}.cls-1,.cls-2,.cls-3{stroke:#09f;}.cls-1,.cls-2,.cls-3,.cls-5,.cls-6,.cls-9{stroke-linecap:round;stroke-linejoin:round;}.cls-1{stroke-width:5.04px;}.cls-2{stroke-width:2.42px;}.cls-3{stroke-width:3.16px;}.cls-4{fill:#c5dfed;}.cls-5{stroke:#ffefa1;stroke-width:4px;}.cls-6,.cls-9{stroke:#333;}.cls-6{stroke-width:5.57px;}.cls-7{fill:#333;}.cls-8{fill:#fd0;}.cls-9{fill:#fff;stroke-width:6px;}</style></defs><title>illustracao-1</title><line class="cls-1" x1="292.61" y1="130.25" x2="301.18" y2="121.68"/><line class="cls-1" x1="300.47" y1="129.85" x2="292.56" y2="121.94"/><line class="cls-2" x1="48.28" y1="129.56" x2="52.4" y2="125.45"/><line class="cls-2" x1="52.06" y1="129.37" x2="48.25" y2="125.57"/><line class="cls-3" x1="175.23" y1="30.94" x2="180.62" y2="25.56"/><line class="cls-3" x1="180.17" y1="30.69" x2="175.2" y2="25.72"/><circle class="cls-4" cx="281.05" cy="45.5" r="6.03"/><circle class="cls-4" cx="121.87" cy="30.27" r="4.08"/><circle class="cls-4" cx="53.05" cy="62.04" r="4.08"/><circle class="cls-4" cx="40.4" cy="158.98" r="4.08"/><circle class="cls-4" cx="283.24" cy="158.98" r="4.08"/><line class="cls-5" x1="285.84" y1="92" x2="293.84" y2="92"/><line class="cls-5" x1="221.84" y1="34" x2="230.84" y2="34"/><line class="cls-5" x1="80.84" y1="38" x2="89.84" y2="38"/><line class="cls-5" x1="33.84" y1="92" x2="43.84" y2="92"/><path class="cls-6" d="M72.38,89.09V61.2A5.58,5.58,0,0,1,78,55.63h53.28"/><path class="cls-6" d="M187.61,176.33H78a5.58,5.58,0,0,1-5.57-5.57V106.31"/><line class="cls-6" x1="210.39" y1="176.33" x2="201.85" y2="176.33"/><path class="cls-6" d="M188.74,55.63H253.2a5.58,5.58,0,0,1,5.57,5.57V170.77a5.58,5.58,0,0,1-5.57,5.57H222.44"/><line class="cls-6" x1="165.27" y1="55.63" x2="177.96" y2="55.63"/><line class="cls-6" x1="142.41" y1="55.56" x2="153.87" y2="55.63"/><path class="cls-6" d="M134.37,62a11.46,11.46,0,0,1-1.63-5.3c-.34-5.89,3.72-10.91,9.07-11.22s10,4.21,10.3,10.1"/><path class="cls-6" d="M157.53,62a11.46,11.46,0,0,1-1.63-5.3c-.34-5.89,3.72-10.91,9.07-11.22s10,4.21,10.3,10.1"/><path class="cls-6" d="M180.7,62a11.46,11.46,0,0,1-1.63-5.3c-.34-5.89,3.72-10.91,9.07-11.22s10,4.21,10.3,10.1"/><circle class="cls-7" cx="90.29" cy="95.45" r="4.25"/><circle class="cls-7" cx="115.38" cy="95.45" r="4.25"/><circle class="cls-7" cx="140.48" cy="95.45" r="4.25"/><circle class="cls-7" cx="165.57" cy="95.45" r="4.25"/><circle class="cls-7" cx="190.67" cy="95.45" r="4.25"/><circle class="cls-7" cx="215.77" cy="95.45" r="4.25"/><circle class="cls-7" cx="240.86" cy="95.45" r="4.25"/><circle class="cls-7" cx="90.29" cy="114.76" r="4.25"/><circle class="cls-7" cx="115.38" cy="114.76" r="4.25"/><circle class="cls-7" cx="140.48" cy="114.76" r="4.25"/><circle class="cls-7" cx="165.57" cy="114.76" r="4.25"/><circle class="cls-7" cx="190.67" cy="114.76" r="4.25"/><circle class="cls-7" cx="215.77" cy="114.76" r="4.25"/><circle class="cls-7" cx="240.86" cy="114.76" r="4.25"/><circle class="cls-7" cx="90.29" cy="134.06" r="4.25"/><circle class="cls-7" cx="115.38" cy="134.06" r="4.25"/><circle class="cls-7" cx="140.48" cy="134.06" r="4.25"/><circle class="cls-7" cx="165.57" cy="134.06" r="4.25"/><circle class="cls-7" cx="190.67" cy="134.06" r="4.25"/><circle class="cls-7" cx="215.77" cy="134.06" r="4.25"/><circle class="cls-7" cx="240.86" cy="134.06" r="4.25"/><circle class="cls-7" cx="90.29" cy="153.37" r="4.25"/><circle class="cls-7" cx="115.38" cy="153.37" r="4.25"/><circle class="cls-8" cx="140.44" cy="153.4" r="4.25"/><circle class="cls-7" cx="165.57" cy="153.37" r="4.25"/><circle class="cls-7" cx="190.67" cy="153.37" r="4.25"/><circle class="cls-7" cx="215.77" cy="153.37" r="4.25"/><line class="cls-9" x1="166.84" y1="74" x2="257.84" y2="74"/><line class="cls-9" x1="133.84" y1="74" x2="155.84" y2="74"/><line class="cls-9" x1="74.84" y1="74" x2="122.84" y2="74"/></svg>