<svg id="Layer_1" data-name="Layer 1" xmlns="http://www.w3.org/2000/svg" viewBox="0 0 333.16 199.38"><defs><style>.cls-1,.cls-2,.cls-4,.cls-5,.cls-7{fill:none;stroke-linecap:round;stroke-linejoin:round;}.cls-1,.cls-2,.cls-5{stroke:#09f;}.cls-1{stroke-width:2.51px;}.cls-2{stroke-width:5.43px;}.cls-3{fill:#c5dfed;}.cls-4{stroke:#ffefa1;stroke-width:5px;}.cls-5{stroke-width:3.41px;}.cls-6,.cls-8{fill:#fd0;}.cls-6{opacity:0;}.cls-7{stroke:#333;stroke-width:4.7px;}.cls-9{fill:#333;}</style></defs><title>illustracao-1</title><line class="cls-1" x1="247.86" y1="172.47" x2="252.12" y2="168.21"/><line class="cls-1" x1="251.77" y1="172.27" x2="247.83" y2="168.34"/><line class="cls-2" x1="62.84" y1="154.57" x2="72.07" y2="145.34"/><line class="cls-2" x1="71.31" y1="154.14" x2="62.78" y2="145.62"/><circle class="cls-3" cx="275.33" cy="101.45" r="6.5"/><line class="cls-4" x1="255.67" y1="29.5" x2="267.67" y2="29.5"/><line class="cls-4" x1="249.67" y1="140.5" x2="260.67" y2="140.5"/><line class="cls-5" x1="206.63" y1="14.28" x2="212.43" y2="8.47"/><line class="cls-5" x1="211.96" y1="14.01" x2="206.6" y2="8.65"/><line class="cls-5" x1="110.99" y1="22.59" x2="116.79" y2="16.79"/><line class="cls-5" x1="116.31" y1="22.32" x2="110.96" y2="16.97"/><circle class="cls-3" cx="249.99" cy="62.99" r="4.4"/><circle class="cls-3" cx="91.51" cy="51.02" r="4.4"/><line class="cls-4" x1="165.67" y1="26.5" x2="177.67" y2="26.5"/><line class="cls-4" x1="79.67" y1="188.5" x2="90.67" y2="188.5"/><line class="cls-4" x1="62.67" y1="103.5" x2="73.67" y2="103.5"/><rect class="cls-6" x="108.23" y="43.68" width="121.91" height="139.78" rx="8.15" ry="8.15"/><path class="cls-7" d="M230.79,134.32v40.25a8.17,8.17,0,0,1-8.15,8.15h-24.9"/><line class="cls-7" x1="230.79" y1="119.95" x2="230.79" y2="125.83"/><path class="cls-7" d="M130.63,182.72H117a8.17,8.17,0,0,1-8.15-8.15V51.08A8.17,8.17,0,0,1,117,42.93H222.64a8.17,8.17,0,0,1,8.15,8.15v58.85"/><polyline class="cls-7" points="183.75 182.72 178.01 182.72 142.2 182.72"/><path class="cls-7" d="M112.36,86.47a9.68,9.68,0,0,0-4.48-1.38c-5-.29-9.22,3.14-9.48,7.66s3.56,8.41,8.53,8.7"/><path class="cls-7" d="M112.36,106a9.68,9.68,0,0,0-4.48-1.38c-5-.29-9.22,3.14-9.48,7.66s3.56,8.41,8.53,8.7"/><path class="cls-7" d="M112.36,125.6a9.68,9.68,0,0,0-4.48-1.38c-5-.29-9.22,3.14-9.48,7.66s3.56,8.41,8.53,8.7"/><rect class="cls-8" x="127.48" y="72.8" width="7.71" height="7.71" rx="0.81" ry="0.81" transform="translate(262.68 153.31) rotate(180)"/><rect class="cls-8" x="140.57" y="74.69" width="71.62" height="3.94"/><rect class="cls-9" x="127.48" y="90.73" width="7.71" height="7.71" rx="0.81" ry="0.81" transform="translate(262.68 189.18) rotate(180)"/><rect class="cls-9" x="140.57" y="92.62" width="71.62" height="3.94"/><rect class="cls-9" x="127.48" y="108.67" width="7.71" height="7.71" rx="0.81" ry="0.81" transform="translate(262.68 225.05) rotate(180)"/><rect class="cls-9" x="140.57" y="110.56" width="71.62" height="3.94"/><rect class="cls-9" x="127.48" y="126.6" width="7.71" height="7.71" rx="0.81" ry="0.81" transform="translate(262.68 260.92) rotate(180)"/><rect class="cls-9" x="140.57" y="128.49" width="71.62" height="3.94"/><rect class="cls-9" x="127.48" y="144.54" width="7.71" height="7.71" rx="0.81" ry="0.81" transform="translate(262.68 296.79) rotate(180)"/><rect class="cls-9" x="140.57" y="146.43" width="71.62" height="3.94"/></svg>