<svg id="Layer_1" data-name="Layer 1" xmlns="http://www.w3.org/2000/svg" viewBox="0 0 333.16 199.38"><defs><style>.cls-1{fill:#ffefa1;}.cls-2{fill:#ededed;}.cls-3{fill:#fd0;}.cls-10,.cls-11,.cls-12,.cls-13,.cls-15,.cls-16,.cls-4,.cls-5,.cls-6,.cls-7,.cls-8,.cls-9{fill:none;}.cls-4,.cls-5,.cls-6,.cls-9{stroke:#333;}.cls-11,.cls-12,.cls-13,.cls-15,.cls-16,.cls-4,.cls-5,.cls-6,.cls-9{stroke-linecap:round;stroke-linejoin:round;}.cls-4,.cls-5{stroke-width:6px;}.cls-4{opacity:0.35;}.cls-16,.cls-6,.cls-7{stroke-width:4px;}.cls-10,.cls-7,.cls-8{stroke:#fff;stroke-miterlimit:10;opacity:0.7;}.cls-8{stroke-width:4.67px;}.cls-11,.cls-9{stroke-width:2.34px;}.cls-10,.cls-15{stroke-width:2px;}.cls-11,.cls-12,.cls-13{stroke:#09f;}.cls-12{stroke-width:3.05px;}.cls-13{stroke-width:4.51px;}.cls-14{fill:#c5dfed;}.cls-15,.cls-16{stroke:#ffefa1;}</style></defs><title>illustracao-1</title><circle class="cls-1" cx="57.35" cy="20.91" r="15.06"/><polygon class="cls-2" points="113 59 150 59 150 113 134 113 134 89 113 89 113 59"/><polygon class="cls-2" points="153 111 153 26 187 26 187 82 171 82 171 111 153 111"/><polygon class="cls-3" points="189 114.87 189 162 68 162 68 120 91.65 120 90.24 91.77 134 90.93 134 114.58 189 114.87"/><polygon class="cls-2" points="167 115 167 85 225.11 85 242 83.92 242 162 189.3 162 189.88 115 167 115"/><line class="cls-4" x1="46" y1="176" x2="171" y2="176"/><line class="cls-4" x1="62" y1="191" x2="196" y2="191"/><line class="cls-4" x1="183" y1="176" x2="235" y2="176"/><line class="cls-4" x1="209" y1="191" x2="242" y2="191"/><line class="cls-4" x1="245" y1="176" x2="261" y2="176"/><line class="cls-5" x1="133" y1="100" x2="133" y2="127"/><polyline class="cls-5" points="134 114 190 114 190 162"/><polyline class="cls-6" points="155 129 155 135 168 135 168 129"/><polyline class="cls-6" points="106 129 106 135 119 135 119 129"/><polyline class="cls-6" points="155 149 155 155 168 155 168 149"/><polyline class="cls-6" points="106 149 106 155 119 155 119 149"/><polyline class="cls-6" points="106 107 106 113 119 113 119 107"/><polyline class="cls-5" points="168 111 168 84 217.32 84 242 84 242 162"/><polyline class="cls-6" points="216 100 216 106 228 106 228 100"/><polyline class="cls-6" points="185 100 185 106 198 106 198 100"/><polyline class="cls-6" points="190 118 190 121 198 121 198 115"/><polyline class="cls-6" points="216 115 216 121 228 121 228 115"/><polyline class="cls-6" points="190 130 190 136 198 136 198 130"/><polyline class="cls-6" points="216 130 216 136 228 136 228 130"/><polyline class="cls-6" points="190 145 190 152 198 152 198 145"/><polyline class="cls-6" points="216 145 216 152 228 152 228 145"/><polyline class="cls-6" points="216 71 226 71 226 82"/><line class="cls-7" x1="73" y1="162" x2="73" y2="125"/><path class="cls-8" d="M97.63,91.24s.3,20.39.3,26.55a4.25,4.25,0,0,1-4.38,3.51l-6.57.42"/><polyline class="cls-5" points="68 162 68 122 87 122"/><polyline class="cls-5" points="132 91 93 91 93 117"/><polyline class="cls-7" points="172 111 172 89 240 89"/><line class="cls-5" x1="110" y1="65" x2="110" y2="89"/><line class="cls-5" x1="110" y1="57" x2="150" y2="57"/><line class="cls-5" x1="150" y1="48" x2="150" y2="34"/><polyline class="cls-5" points="150 26 189 26 189 80"/><polyline class="cls-6" points="116 55 116 47 124 47"/><polyline class="cls-6" points="178 19 182 19 182 24"/><polyline class="cls-6" points="120 73 120 69 126 69"/><polyline class="cls-6" points="135 73 135 69 141 69"/><polyline class="cls-6" points="158 44 158 40 165 40"/><polyline class="cls-6" points="174 44 174 40 180 40"/><polyline class="cls-6" points="158 59 158 55 165 55"/><polyline class="cls-6" points="174 59 174 55 180 55"/><polyline class="cls-6" points="158 73 158 69 165 69"/><polyline class="cls-6" points="174 73 174 69 180 69"/><polyline class="cls-6" points="158 88 158 84 165 84"/><polyline class="cls-6" points="158 103 158 99 165 99"/><polyline class="cls-6" points="120 88 120 84 126 84"/><polyline class="cls-6" points="135 88 135 84 141 84"/><path class="cls-9" d="M51.81,34.11A14.37,14.37,0,1,1,64.27,8.28"/><path class="cls-9" d="M71.25,16.93a14.39,14.39,0,0,1-7,17.18"/><polyline class="cls-10" points="115 88 115 61 150 61"/><polyline class="cls-10" points="154 111 154 30 186 30"/><line class="cls-5" x1="150" y1="65" x2="150" y2="111"/><line class="cls-11" x1="279.61" y1="75.76" x2="283.58" y2="71.79"/><line class="cls-11" x1="283.25" y1="75.58" x2="279.58" y2="71.91"/><line class="cls-11" x1="67.08" y1="82.77" x2="71.06" y2="78.8"/><line class="cls-11" x1="70.73" y1="82.58" x2="67.06" y2="78.92"/><line class="cls-12" x1="244.9" y1="24.75" x2="250.08" y2="19.56"/><line class="cls-12" x1="249.66" y1="24.51" x2="244.87" y2="19.72"/><line class="cls-12" x1="152.65" y1="9.57" x2="157.83" y2="4.38"/><line class="cls-12" x1="157.41" y1="9.33" x2="152.62" y2="4.54"/><line class="cls-13" x1="269.74" y1="116.29" x2="277.41" y2="108.62"/><line class="cls-13" x1="276.78" y1="115.94" x2="269.7" y2="108.86"/><circle class="cls-14" cx="221.16" cy="44.95" r="3.65"/><circle class="cls-14" cx="102.94" cy="31.44" r="3.45"/><circle class="cls-14" cx="86.13" cy="61.82" r="1.82"/><line class="cls-15" x1="254" y1="52" x2="259" y2="52"/><line class="cls-16" x1="41" y1="101" x2="50" y2="101"/><line class="cls-15" x1="204" y1="12" x2="210" y2="12"/><line class="cls-15" x1="127" y1="27" x2="133" y2="27"/></svg>