<svg id="Layer_1" data-name="Layer 1" xmlns="http://www.w3.org/2000/svg" viewBox="0 0 137.34 96.38"><defs><style>.cls-1{fill:#333;}.cls-2{fill:#fff;}</style></defs><title>logo</title><path class="cls-1" d="M9.28,49.79C-2.34,54.55-3.16,63.94,7.47,70.63l35,22.06a25.54,25.54,0,0,0,33.18-6l57.6-75.3c7.63-10,4.36-14.24-7.26-9.48Z" transform="translate(0)"/><path class="cls-2" d="M25.12,71.29H17.32V50.08h7.79Z" transform="translate(0)"/><path class="cls-2" d="M44.19,50.08v6.37H39.05V71.29H31.26V56.45H26.09V50.08Z" transform="translate(0)"/><path class="cls-2" d="M60.14,55.7H52.69v2.2h6.53V63H52.69v2.65h9.77v5.63H45.16V50.08h15Z" transform="translate(0)"/><path class="cls-2" d="M67.38,49.13l8.79,9.64L76,50.08h7.34V71.29l-5.27.94-8.7-9.37.1,8.44H62.2V50.08Z" transform="translate(0)"/></svg>