<?xml version="1.0" encoding="iso-8859-1"?>
<!-- Generator: Adobe Illustrator 19.0.0, SVG Export Plug-In . SVG Version: 6.00 Build 0)  -->
<svg version="1.1" id="Layer_1" xmlns="http://www.w3.org/2000/svg" xmlns:xlink="http://www.w3.org/1999/xlink" x="0px" y="0px"
	 viewBox="0 0 512 512" style="enable-background:new 0 0 512 512;" xml:space="preserve">
<g>
	<g>
		<g>
			<path d="M67.368,495.832h-1.078c-4.466,0-8.084,3.619-8.084,8.084c0,4.466,3.619,8.084,8.084,8.084h1.078
				c4.466,0,8.084-3.618,8.084-8.084C75.453,499.45,71.834,495.832,67.368,495.832z"/>
			<path d="M390.737,479.663c22.289,0,40.421-18.132,40.421-40.421c0-22.289-18.132-40.421-40.421-40.421
				c-22.289,0-40.421,18.132-40.421,40.421C350.316,461.531,368.448,479.663,390.737,479.663z M390.737,414.989
				c13.372,0,24.253,10.88,24.253,24.253c0,13.372-10.88,24.253-24.253,24.253c-13.372,0-24.253-10.88-24.253-24.253
				C366.484,425.87,377.364,414.989,390.737,414.989z"/>
			<path d="M24.253,495.832h-1.078c-4.466,0-8.084,3.619-8.084,8.084c0,4.466,3.619,8.084,8.084,8.084h1.078
				c4.466,0,8.084-3.618,8.084-8.084C32.337,499.45,28.718,495.832,24.253,495.832z"/>
			<path d="M498.526,495.832h-1.078c-4.466,0-8.084,3.619-8.084,8.084c0,4.466,3.618,8.084,8.084,8.084h1.078
				c4.466,0,8.084-3.618,8.084-8.084C506.611,499.45,502.992,495.832,498.526,495.832z"/>
			<path d="M396.126,113.179c4.466,0,8.084-3.618,8.084-8.084V40.421c0-4.466-3.618-8.084-8.084-8.084
				c-4.466,0-8.084,3.618-8.084,8.084v64.674C388.042,109.56,391.661,113.179,396.126,113.179z"/>
			<path d="M390.737,382.653c22.289,0,40.421-18.132,40.421-40.421V40.421C431.158,18.132,413.026,0,390.737,0
				c-22.289,0-40.421,18.132-40.421,40.421v301.81C350.316,364.52,368.448,382.653,390.737,382.653z M366.484,40.421
				c0-13.372,10.88-24.253,24.253-24.253c13.372,0,24.253,10.88,24.253,24.253v301.81c0,13.372-10.88,24.253-24.253,24.253
				c-13.372,0-24.253-10.88-24.253-24.253V40.421z"/>
			<path d="M396.126,144.147c4.466,0,8.084-3.619,8.084-8.084v-1.078c0-4.466-3.618-8.084-8.084-8.084
				c-4.466,0-8.084,3.618-8.084,8.084v1.078C388.042,140.528,391.661,144.147,396.126,144.147z"/>
			<path d="M204.8,439.242c0-22.289-18.132-40.421-40.421-40.421s-40.421,18.132-40.421,40.421
				c0,22.289,18.132,40.421,40.421,40.421S204.8,461.531,204.8,439.242z M140.126,439.242c0-13.372,10.88-24.253,24.253-24.253
				s24.253,10.88,24.253,24.253c0,13.372-10.88,24.253-24.253,24.253S140.126,452.614,140.126,439.242z"/>
			<path d="M198.952,37.115c-4.292-1.222-8.764,1.281-9.98,5.576c-1.217,4.297,1.279,8.764,5.576,9.98
				c47.288,13.392,80.315,57.111,80.315,106.318c0,4.466,3.618,8.084,8.084,8.084c4.466,0,8.084-3.618,8.084-8.084
				C291.032,102.584,253.167,52.468,198.952,37.115z"/>
			<path d="M294.804,495.832h-1.078c-4.466,0-8.084,3.619-8.084,8.084c0,4.466,3.619,8.084,8.084,8.084h1.078
				c4.466,0,8.084-3.618,8.084-8.084C302.888,499.45,299.27,495.832,294.804,495.832z"/>
			<path d="M165.252,32.34l-0.873-0.003c-4.466,0-8.084,3.618-8.084,8.084c0,4.466,3.618,8.084,8.084,8.084l0.746,0.003
				c0.022,0,0.043,0,0.065,0c4.435,0,8.049-3.578,8.083-8.021C173.307,36.023,169.716,32.375,165.252,32.34z"/>
			<path d="M218.274,495.832H99.705c-4.466,0-8.084,3.619-8.084,8.084c0,4.466,3.618,8.084,8.084,8.084h118.568
				c4.466,0,8.084-3.618,8.084-8.084C226.358,499.45,222.739,495.832,218.274,495.832z"/>
			<path d="M251.688,495.832h-1.078c-4.466,0-8.084,3.619-8.084,8.084c0,4.466,3.619,8.084,8.084,8.084h1.078
				c4.466,0,8.084-3.618,8.084-8.084C259.773,499.45,256.154,495.832,251.688,495.832z"/>
			<path d="M455.41,495.832H326.063c-4.466,0-8.084,3.619-8.084,8.084c0,4.466,3.618,8.084,8.084,8.084H455.41
				c4.466,0,8.084-3.618,8.084-8.084C463.495,499.45,459.876,495.832,455.41,495.832z"/>
			<path d="M319.273,154.727c-0.569-40.937-16.925-79.525-46.055-108.657C244.088,16.941,205.5,0.585,164.558,0.016
				c-0.733-0.011-1.458-0.015-2.188-0.015c-41.554,0-80.628,16.001-110.233,45.195C21.991,74.927,5.389,114.615,5.389,156.949
				c0,22.289,18.132,40.421,40.421,40.421s40.421-18.132,40.421-40.421c0-20.529,8.052-39.774,22.669-54.192
				c14.631-14.427,34.015-22.209,54.535-21.907c40.791,0.567,74.437,34.213,75.004,75.004c0.406,29.159-16.215,56.376-42.344,69.338
				c-22.304,11.066-41.028,28.108-54.146,49.287c-12.464,20.121-19.367,43.234-19.985,66.88c-0.03,0.287-0.046,0.578-0.046,0.874
				c0,22.289,18.132,40.421,40.421,40.421c21.908,0,39.802-17.521,40.405-39.286c0.031-0.258,0.053-0.523,0.065-0.794
				c0.808-19.194,12.003-36.421,29.215-44.96c26.12-12.957,48.095-32.899,63.548-57.671
				C311.498,214.414,319.695,184.946,319.273,154.727z M224.838,283.127c-22.17,10.999-36.702,33.028-38.132,57.742
				c-0.076,0.443-0.114,0.898-0.114,1.362c0,13.372-10.88,24.253-24.253,24.253c-13.169,0-23.918-10.548-24.245-23.639
				c0.01-0.147,0.016-0.294,0.019-0.445c0.439-21.003,6.519-41.546,17.583-59.408c11.529-18.613,27.985-33.592,47.586-43.316
				c31.672-15.711,51.818-48.703,51.325-84.048c-0.688-49.46-41.485-90.258-90.94-90.945c-24.847-0.393-48.377,9.067-66.118,26.562
				c-17.725,17.481-27.486,40.817-27.486,65.705c0,13.372-10.88,24.253-24.253,24.253s-24.253-10.879-24.253-24.253
				c0-37.973,14.891-73.574,41.931-100.242c26.557-26.187,61.605-40.537,98.883-40.537c0.653,0,1.31,0.004,1.963,0.013
				c36.706,0.511,71.313,15.185,97.449,41.321c26.137,26.138,40.811,60.745,41.322,97.449c0.377,27.11-6.973,53.54-21.254,76.43
				C267.987,253.609,248.271,271.502,224.838,283.127z"/>
		</g>
	</g>
</g>
<g>
</g>
<g>
</g>
<g>
</g>
<g>
</g>
<g>
</g>
<g>
</g>
<g>
</g>
<g>
</g>
<g>
</g>
<g>
</g>
<g>
</g>
<g>
</g>
<g>
</g>
<g>
</g>
<g>
</g>
</svg>
